<?xml version="1.0" encoding="utf-8"?>
<!-- Svg Vector Icons : http://www.onlinewebfonts.com/icon -->
<!DOCTYPE svg PUBLIC "-//W3C//DTD SVG 1.1//EN" "http://www.w3.org/Graphics/SVG/1.1/DTD/svg11.dtd">
<svg version="1.1" xmlns="http://www.w3.org/2000/svg" xmlns:xlink="http://www.w3.org/1999/xlink" x="0px" y="0px" viewBox="0 0 1000 1000" enable-background="new 0 0 1000 1000" xml:space="preserve">
<metadata> Svg Vector Icons : http://www.onlinewebfonts.com/icon </metadata>
<g><path d="M500.7,535.3L330.4,705.6l-17.3,17.3l-34.6-34.6l17.3-17.3L466,500.7L295.8,330.4l-17.3-17.3l34.6-34.6l17.3,17.3L500.7,466L671,295.8l17.3-17.3l34.6,34.6l-17.3,17.3L535.3,500.7L705.6,671l17.3,17.3l-34.6,34.6L671,705.6L500.7,535.3z M500,990c270.6,0,490-219.4,490-490S770.6,10,500,10S10,229.4,10,500S229.4,990,500,990z"/></g>
</svg>